HIERARCHY
ROOT pelvis
{
  OFFSET 0 100 0
  CHANNELS 6 Xposition Yposition Zposition Zrotation Xrotation Yrotation
  JOINT pelvis_right_femur
  {
    OFFSET -10.78128 -3.44521 -0.5502486
    CHANNELS 3 Zrotation Xrotation Yrotation
    JOINT right_femur_tibia
    {
      OFFSET -0.8047443 -44.0398 -0.1307829
      CHANNELS 3 Zrotation Xrotation Yrotation
      JOINT right_tibia_foot
      {
        OFFSET 3.006224 -47.83518 -5
        CHANNELS 3 Zrotation Xrotation Yrotation
        End Site
        {
          OFFSET 0 -5 15
        }
      }
    }
  }
  JOINT pelvis_left_femur
  {
    OFFSET 10.78128 -3.44521 -0.5502486
    CHANNELS 3 Zrotation Xrotation Yrotation
    JOINT left_femur_tibia
    {
      OFFSET 0.8047443 -44.0398 -0.1307829
      CHANNELS 3 Zrotation Xrotation Yrotation
      JOINT left_tibia_foot
      {
        OFFSET -4.370144 -48.10324 -4.275266
        CHANNELS 3 Zrotation Xrotation Yrotation
        End Site
        {
          OFFSET 0 -5 15
        }
      }
    }
  }
  JOINT pelvis_spine1
  {
    OFFSET 0 6.468898 -3.129235
    CHANNELS 3 Zrotation Xrotation Yrotation
    JOINT spine1
    {
      OFFSET 0 23.15396 4.99043
      CHANNELS 3 Zrotation Xrotation Yrotation
      JOINT spine2
      {
        OFFSET 0 20.79997 -5.064912
        CHANNELS 3 Zrotation Xrotation Yrotation
        JOINT neck
        {
          OFFSET 0 14.38658 9.616178
          CHANNELS 3 Zrotation Xrotation Yrotation
          End Site
          {
            OFFSET 0 20 0
          }
        }
      }
      JOINT right_manubrium
      {
        OFFSET -5.722621 16.35077 3.967754
        CHANNELS 3 Zrotation Xrotation Yrotation
        JOINT right_clavicle
        {
          OFFSET -13.16364 1.694482 -4.693211
          CHANNELS 3 Zrotation Xrotation Yrotation
          JOINT right_humerus
          {
            OFFSET -28.5034 -0.3100689 -2.792744
            CHANNELS 3 Zrotation Xrotation Yrotation
            JOINT right_radius
            {
              OFFSET -25.15693 0.02248979 -1.271978
              CHANNELS 3 Zrotation Xrotation Yrotation
              End Site
              {
                OFFSET -15 0 0
              }
            }
          }
        }
      }
      JOINT left_manubrium
      {
        OFFSET 5.722621 16.35077 3.967754
        CHANNELS 3 Zrotation Xrotation Yrotation
        JOINT left_clavicle
        {
          OFFSET 13.16364 1.694482 -4.693211
          CHANNELS 3 Zrotation Xrotation Yrotation
          JOINT left_humerus
          {
            OFFSET 29.39168 -1.063119 -2.237045
            CHANNELS 3 Zrotation Xrotation Yrotation
            JOINT left_radius
            {
              OFFSET 24.59957 -0.9528479 0.9047498
              CHANNELS 3 Zrotation Xrotation Yrotation
              End Site
              {
                OFFSET 15 -0 -0
              }
            }
          }
        }
      }
    }
  }
}
MOTION
Frames: 13
Frame Time: 0.0416666666667
-1129.163 101.8836 2208.066 2.462279 2.141747 -63.6221 5.646747 -36.43222 0.7826846 -0 12.95937 -0 -8.621843 0.7043197 0.8591675 -5.986932 15.25 -15.11606 -0 12.07605 -0 1.887859 -24.82769 16.51955 -1.786539 -1.069049 2.779192 3.932645 8.58466 -8.764725 0.9969423 19.46329 8.014545 4.435534 -27.33038 9.040504 5.949555 -16.46167 11.94501 85.88672 33.85318 -20.07824 -0 0 11.51723 -10.74969 10.57378 7.133466 6.940087 -20.92949 -0.519321 -89.92998 21.39215 15.73237 0 0 -18.56379 9.361027 13.0917 1.357439
-1133.88 101.391 2210.386 2.501005 2.653223 -63.0401 6.576988 -36.77411 0.7556199 -0 10.73991 -0 -8.92638 2.51925 0.5945792 -5.384174 16.51102 -13.64212 -0 16.42386 -0 -1.139002 -24.69563 13.65173 -1.687397 -0.9122316 2.644438 4.024163 8.50174 -8.940494 0.8841309 19.13679 8.268375 4.661044 -27.41661 8.938036 5.84408 -16.24634 12.04174 86.0109 33.71526 -20.31995 -0 0 11.10695 -11.27856 10.87809 7.44172 7.185492 -21.21709 -0.4497287 -89.3779 20.77501 14.92648 0 0 -19.59677 9.316272 12.61762 1.145525
-1139.269 101.2071 2213.078 2.024957 2.940784 -62.37094 7.383216 -33.99833 1.263209 -0 10.65639 -0 -8.867419 2.962226 -0.246913 -4.568448 16.48239 -12.03605 -0 22.25949 -0 -3.676159 -21.56741 10.692 -1.59384 -0.7393904 2.581479 4.04912 8.536182 -9.057082 0.7858263 18.91184 8.429304 4.829768 -27.33442 8.770611 5.710174 -16.07597 12.12178 86.20912 33.56775 -20.54887 -0 0 10.63846 -11.88195 11.12299 7.764283 7.330454 -21.4949 -0.5429991 -88.80937 20.2064 14.21618 0 0 -20.62158 9.227413 12.07414 1.074917
-1144.982 101.5267 2215.978 1.533657 3.356776 -61.91288 8.036319 -29.34841 2.338497 -0 12.75855 -0 -8.729158 1.625698 -1.12741 -3.676393 14.30694 -10.93161 -0 30.10294 -0 -5.253875 -15.63283 8.341917 -1.536552 -0.5575553 2.643145 3.927203 8.790674 -9.027243 0.739945 18.9229 8.403272 4.889054 -26.96292 8.530427 5.565452 -16.02098 12.15548 86.45184 33.45362 -20.59986 -0 0 10.2121 -12.55678 11.21522 8.046008 7.284133 -21.68631 -0.8855374 -88.29442 19.69427 13.74303 0 0 -21.24372 9.245057 11.52586 1.011135
-1150.784 102.3949 2218.869 1.003807 3.571824 -61.91004 8.497759 -24.9458 3.253414 -0 14.55676 -0 -8.851116 -0.1977437 -1.729262 -3.047009 11.21697 -10.1653 -0 40.51667 -0 -6.092367 -9.828807 7.263988 -1.531464 -0.3830274 2.824961 3.649172 9.234271 -8.823423 0.759713 19.18663 8.196442 4.843878 -26.35453 8.262095 5.419581 -16.11571 12.13247 86.66131 33.38712 -20.35147 -0 0 9.962737 -13.2373 11.11735 8.248723 7.060436 -21.74184 -1.404574 -87.92506 19.25188 13.59046 0 0 -21.217 9.461427 11.07191 0.8223144
-1156.575 103.7722 2221.656 -0.1767143 2.949788 -62.38484 8.814177 -20.47473 3.662664 -0 14.91778 -0 -9.258498 -1.173364 -2.225179 -2.778438 7.822318 -9.117046 -0 52.18755 -0 -5.93165 -6.243733 7.973564 -1.568368 -0.2428766 3.065716 3.31001 9.703955 -8.51124 0.8219404 19.5842 7.905418 4.73547 -25.72558 8.036674 5.283858 -16.33083 12.07622 86.76196 33.36365 -19.84871 -0 0 9.961065 -13.78604 10.88279 8.373815 6.748536 -21.65956 -1.913916 -87.78447 18.96243 13.78239 0 0 -20.61902 9.779127 10.79767 0.5737381
-1162.04 105.6337 2224.28 -1.58372 1.92456 -63.20878 8.854672 -15.03879 3.550319 -0 14.46236 -0 -10.24901 -1.935676 -2.098992 -2.612978 2.362664 -8.270154 -0 62.14134 -0 -5.229069 -4.261277 9.357596 -1.641995 -0.1427419 3.370473 2.942655 10.15304 -8.104724 0.9122899 20.07805 7.547645 4.564645 -25.12956 7.854799 5.164311 -16.67049 12.0042 86.71464 33.4093 -19.09225 -0 0 10.22848 -14.17517 10.54038 8.458267 6.350269 -21.43478 -2.369296 -87.90995 18.88333 14.39394 0 0 -19.49658 10.1056 10.70657 0.3909951
-1166.933 107.5967 2226.734 -2.590283 0.6972636 -64.09642 8.021074 -9.062574 2.692925 -0 12.91474 -0 -11.33862 -3.364542 -1.184067 -2.336958 -5.48862 -7.756398 -0 66.80954 -0 -4.687662 -3.317411 9.915701 -1.751946 -0.08519291 3.802663 2.52259 10.59586 -7.574003 1.019618 20.66563 7.107296 4.324795 -24.51911 7.678528 5.034435 -17.18742 11.91755 86.48676 33.53708 -18.01481 -0 0 10.81536 -14.46609 10.09668 8.558064 5.857151 -21.08327 -2.780871 -88.32361 19.01729 15.54296 0 0 -17.89344 10.39463 10.75353 0.3807432
-1171.44 109.0323 2229.088 -3.160247 -0.7510017 -64.76316 6.408321 -3.297073 1.398637 -0 10.63573 -0 -11.80489 -5.39238 -0.1445676 -1.603294 -13.55427 -6.819182 -0 63.48963 -0 -3.743367 -3.21272 10.06153 -1.870756 -0.09792963 4.372459 2.065052 10.97715 -6.969671 1.106753 21.22632 6.669855 4.085661 -23.92609 7.497714 4.859436 -17.88088 11.81707 86.08704 33.72459 -16.70585 -0 0 11.72602 -14.7142 9.63116 8.687039 5.409573 -20.7408 -3.079291 -88.97493 19.22965 17.145 0 0 -16.16213 10.67577 10.89102 0.4874025
-1175.929 109.626 2231.342 -4.222452 -2.191154 -65.28181 5.391831 2.622849 0.4414516 -0 8.966621 -0 -11.76677 -7.496707 -0.05858634 -0.2207583 -18.53443 -5.277055 -0 54.18502 -0 -1.741249 -3.435513 12.31833 -1.954773 -0.1941032 5.005217 1.619667 11.24817 -6.398996 1.137649 21.6318 6.346702 3.934158 -23.39649 7.321174 4.636662 -18.67206 11.70996 85.60137 33.92007 -15.39092 -0 0 12.83917 -14.95153 9.241421 8.809792 5.150473 -20.5594 -3.233843 -89.72725 19.32315 18.92125 0 0 -14.6862 11.02338 11.06955 0.5392125
-1180.464 109.4854 2233.496 -5.95335 -3.126961 -65.89265 5.571663 8.444 -0.2483995 -0 7.815311 -0 -11.608 -9.611819 -0.6710246 1.371746 -20.33113 -3.997713 -0 42.84138 -0 -0.2926569 -3.639456 15.99702 -1.985282 -0.3807322 5.664553 1.216477 11.4128 -5.915195 1.102698 21.86346 6.152253 3.876037 -22.89971 7.140171 4.41713 -19.51137 11.60247 85.05252 34.11522 -14.18964 -0 0 14.0721 -15.13969 8.963655 8.907688 5.074196 -20.56938 -3.278809 -90.53157 19.31809 20.78791 0 0 -13.58319 11.36845 11.27532 0.6292428
-1184.964 108.9213 2235.718 -6.650336 -2.785417 -66.54003 6.276784 12.23988 -0.5001464 -0 6.962994 -0 -11.3573 -11.70686 -0.7658053 3.183019 -22.00342 -2.817147 -0 31.56127 -0 -0.2189411 -3.449586 17.54899 -1.944505 -0.668215 6.369577 0.8441705 11.49508 -5.527602 0.9908773 21.92449 6.084851 3.915925 -22.34624 6.923618 4.238578 -20.40952 11.49384 84.40717 34.30661 -13.10769 -0 0 15.43398 -15.27755 8.812695 8.990396 5.166196 -20.79721 -3.252747 -91.38821 19.25072 22.79043 0 0 -12.90528 11.63471 11.49023 0.9051923
-1189.469 108.1889 2238.228 -6.001451 -1.329791 -67.12783 7.057954 13.70105 0.4807268 -0 7.416201 -0 -10.5197 -13.40669 -0.5243701 5.315142 -24.33585 -1.093639 -0 22.21927 -0 -0.3248533 -2.411394 16.59621 -1.81153 -1.020883 7.082796 0.5025835 11.52428 -5.253807 0.791109 21.81444 6.161628 4.076592 -21.6778 6.644036 4.096609 -21.35013 11.39601 83.69119 34.41466 -12.14596 -0 0 16.87408 -15.45764 8.79913 9.101008 5.40752 -21.25372 -3.20869 -92.21736 19.02048 24.83581 0 0 -12.64019 11.81006 11.63934 1.340297
